<svg width="300" height="400" viewBox="0 0 200 300" xmlns="http://www.w3.org/2000/svg">
    <!-- Queue -->
    <path d="M185 190 Q210 200 210 240 Q210 270 190 260 L185 230 Z" fill="#5a6b8c"/>

    <!-- Corps principal (dos) -->
    <path d="M40 130 C40 70, 160 50, 160 130 L160 140 C160 200, 90 240, 40 190 Z" fill="#6b7c93"/>

    <!-- Corps principal (ventre - partie inférieure) -->
    <ellipse cx="100" cy="220" rx="60" ry="60" fill="#5a6b8c"/>

    <!-- Avant-pattes -->
    <path d="M90 220 L90 260 M70 220 L70 270" stroke="#4a5a73" stroke-width="15" stroke-linecap="round"/>

    <!-- Arrière-pattes -->
    <path d="M110 220 L110 260 M130 220 L130 270" stroke="#4a5a73" stroke-width="15" stroke-linecap="round"/>

    <!-- Tête -->
    <path d="M 85 110 C 85 70, 115 60, 125 95 L 125 140 Q 100 140 75 140 Z" fill="#6b7c93"/>

    <!-- Oreilles -->
    <path d="M 85 110 L 80 70 L 90 90 Z" fill="#4a5a73"/>
    <path d="M 125 95 L 130 65 L 120 85 Z" fill="#4a5a73"/>

    <!-- Museau -->
    <circle cx="75" cy="130" r="18" fill="#cbd5e0"/>

    <!-- Tâche noire sur le museau -->
    <path d="M 60 125 Q 65 135, 75 130 Q 85 125, 80 115 Q 75 115, 70 125" fill="#2d3748"/>

    <!-- Yeux -->
    <circle cx="80" cy="125" r="1.5" fill="#000"/>
    <circle cx="95" cy="125" r="1.5" fill="#000"/>

    <!-- Nez -->
    <circle cx="65" cy="135" r="2" fill="#0f172a"/>

    <!-- Détail fourrure (mousse) -->
    <path d="M 45 145 Q 50 140, 48 150" stroke="#4a5a73" stroke-width="2" fill="none"/>
    <path d="M 55 190 Q 60 185, 58 195" stroke="#4a5a73" stroke-width="2" fill="none"/>
    <path d="M 90 135 L 80 110" stroke="#4a5a73" stroke-width="1" opacity="0.6"/>
</svg>
